PathFileType	4	(X/Y/Z)	17_1_29_p1_0-207.trc
DataRate	CameraRate	NumFrames	NumMarkers	Units	OrigDataRate	OrigDataStartFrame	OrigNumFrames
59.0	59.0	7	27	m	59.0	78	208
Frame#	Time	RHip			RKnee			RAnkle			RBigToe			RSmallToe			RHeel			LHip			LKnee			LAnkle			LBigToe			LSmallToe			LHeel			Neck			Head			Nose			RShoulder			RElbow			RWrist			RThumb			RIndex			RPinky			LShoulder			LElbow			LWrist			LThumb			LIndex			LPinky			
		X1	Y1	Z1	X2	Y2	Z2	X3	Y3	Z3	X4	Y4	Z4	X5	Y5	Z5	X6	Y6	Z6	X7	Y7	Z7	X8	Y8	Z8	X9	Y9	Z9	X10	Y10	Z10	X11	Y11	Z11	X12	Y12	Z12	X13	Y13	Z13	X14	Y14	Z14	X15	Y15	Z15	X16	Y16	Z16	X17	Y17	Z17	X18	Y18	Z18	X19	Y19	Z19	X20	Y20	Z20	X21	Y21	Z21	X22	Y22	Z22	X23	Y23	Z23	X24	Y24	Z24	X25	Y25	Z25	X26	Y26	Z26	X27	Y27	Z27	
78	1.3220338983050848	0.2533428737310335	0.555764650391252	0.7993840699428689	0.2387152234378271	0.6256020246903071	1.239588838886105	0.20221480076963474	0.7927024866210507	1.6963841627779264	0.2381738166827877	0.5182445597978143	1.7087605272221484	0.2898524693411617	0.5934689285056169	1.7341201812211435	0.18474334905071774	0.8308782902100852	1.750562856827047	0.038772891799997586	0.5671491568346025	0.80514425470631	0.02678115972206696	0.6243151474845322	1.2542071332326288	-0.011388291341297851	0.7505952126370362	1.683936872973497	0.07941514949047701	0.5227646974148664	1.7140633699103662	0.0015667261631057217	0.5407271665256916	1.7039265142989106	-0.02082369786850607	0.8577997055063085	1.785198982014875	0.12982389781344017	0.4915184170141855	0.20758841032264924	0.11966008854921206	0.3761452633102229	-0.024660541222311393	0.13864754585850642	0.318117427377501	0.109457820259486	0.2884870982365154	0.46052475176534147	0.2792165413908574	0.299859616614405	0.4598127664662923	0.5486081304021982	0.2835311593208596	0.390782019091485	0.8147094216926138	0.18956756187463966	0.3339588971008882	0.90152586809272	0.18151283109057628	0.36900101820393394	0.9589646392922155	0.2162957239862834	0.4775954427978104	0.9680802309559602	-0.0028596292662698363	0.495043530572308	0.29234300849177375	0.010047787081633383	0.4333279264915113	0.5546136928924125	0.09461350947509699	0.3213558073793316	0.7824440570190874	0.18680397256394288	0.22338929711038344	0.8319388532551154	0.177690319161813	0.24029638006715293	0.8740906985030961	0.15438177384723936	0.35912703129237045	0.9181194854586525
79	1.3389830508474576	0.2533808048100067	0.555993427885059	0.7913672947772554	0.23866144860316943	0.6263004871132931	1.2393420800116315	0.20307527531407088	0.795578577418485	1.7020277656260434	0.23898113202740345	0.5201297236749763	1.7137103019860687	0.2906443223751716	0.5956825572770683	1.7393083605403954	0.1872977218031308	0.8466216156873648	1.7575104977775522	0.03941418417632384	0.5667699262709065	0.8008676363149662	0.026386719152506788	0.6250767477548378	1.250485438801073	-0.011965718939434464	0.7517123048805623	1.680093676675256	0.08585100636264008	0.509067003663006	1.70657405178209	0.0015256749256524439	0.5410038388737184	1.7040419221983467	-0.020892148399055753	0.8577279295221959	1.7847562020373309	0.12983649809784015	0.4915533415370186	0.20757929686859145	0.1264732680125186	0.3765902950098883	-0.024836367111799446	0.1386778426561285	0.3180554239579196	0.10956119652611632	0.28848850225983896	0.4605184423023939	0.27917685679196097	0.29987638834850017	0.45978817758183865	0.5485241725020156	0.28352758554680213	0.3908517649154561	0.8145916053302601	0.18394125691308955	0.3459311447317545	0.9048009279468837	0.17959480302677266	0.37834465541894385	0.9566488239090285	0.21423129831072238	0.4648974621792424	0.9654935274103182	0.0030088615672033353	0.4834187276112509	0.28826935404241233	0.00993784385964842	0.43327027313171	0.5546843782941107	0.08851460970979587	0.33321224626014195	0.7851010406534269	0.18113127277559826	0.23496279481495547	0.8345208883910177	0.17168130886776276	0.25197242881332227	0.8801431093023974	0.15286383648773152	0.34614329503893154	0.9081025220362747
80	1.3559322033898304	0.25336516811169857	0.5560923708496449	0.7911610269766712	0.23858209430612445	0.6263037875704551	1.239685536832959	0.20311040864194432	0.7955728418479743	1.7021693994400113	0.238970511520337	0.5200639338395487	1.7136659546275104	0.29066292363243884	0.5954172237493079	1.7391787708807263	0.18736628540201172	0.8466325187270475	1.7575975957606873	0.03914165970150671	0.5651230769834472	0.796040796445725	0.026894778574176135	0.6240847433503309	1.2539971373757488	-0.011382511186367605	0.7504013172723972	1.683883687393377	0.08586003578441928	0.5088239862149735	1.7064951401342916	0.00043067690576300194	0.526830879266556	1.6975071220743538	-0.02088605625263312	0.8576362078093372	1.7848885908642087	0.12988511683443582	0.4915710725201928	0.20747377436140033	0.12649434288024378	0.37768105360899357	-0.02151266443193657	0.13868570199156177	0.3181372821280989	0.10958347013010027	0.2885074208089223	0.4604896583616599	0.27911676161896337	0.3020246198448645	0.47160324301747714	0.5495482998528629	0.28345241188338144	0.3908938140250775	0.8146241249982674	0.18358330386448124	0.3456945959370176	0.904506195539891	0.1753608119642233	0.378660991080804	0.957015236235141	0.20968548844459767	0.4655160616572868	0.9622832500123805	0.0006833678947892072	0.4971997287740934	0.2885616371394985	0.010037739702179306	0.43297409775492723	0.5544535496503582	0.0884713024761021	0.33332174460814495	0.7852274163780856	0.17550950852158304	0.24625605027469888	0.8372590638169527	0.16623605698448898	0.2635267021300043	0.8832785182938572	0.15136557362871988	0.3352226701590141	0.9058394230088782
81	1.3728813559322033	0.2534557102821029	0.5562800030688501	0.7831955928644581	0.2377815879712097	0.626661224800304	1.2438975598452318	0.20372716293636448	0.7943944208979048	1.7062021975333048	0.23887896808541467	0.5201350124131153	1.7137580590297012	0.29064874662227136	0.5955532406649549	1.7392757711851856	0.18485288688295315	0.830967211876581	1.7507583868292964	0.03891308755584821	0.5657213506997173	0.7921782360018823	0.026559509579376202	0.6248557288022076	1.2504210905072635	-0.012615611755486924	0.7511731026244121	1.6888942374293001	0.08595667696232542	0.5087557369848505	1.7064946796026865	0.0005007313050540556	0.526669117299418	1.6974734615569167	-0.020969646072990455	0.8575580787755173	1.7848788585883584	0.12991672646046934	0.49159615495631914	0.20741284480236727	0.12648287136480407	0.37656416601743076	-0.027728610176872035	0.13872376701365102	0.31801114841991107	0.10965887269576871	0.288509063899579	0.46051337443049767	0.27907750374936136	0.30201452525128775	0.47152700051409147	0.5494506914451007	0.28281639237567974	0.3895956640465919	0.8105135819790542	0.18368354414476537	0.34483781562806115	0.9041495107638124	0.17493157091765832	0.37930504244232965	0.9536363713183715	0.20973142936934053	0.4653463283893147	0.9622321788116992	0.006890881987948995	0.48550682640920717	0.2848529332945614	0.010128983317439024	0.4329603847781938	0.5543129819583985	0.08836807700790288	0.33350291829263257	0.7852518531960596	0.1740453449734532	0.2353109297708744	0.8384240418307433	0.15957854689369783	0.26473400546459336	0.8840662881623673	0.15115102454046753	0.33531758636826814	0.9058389042798106
82	1.3898305084745763	0.25875677167653804	0.5433497767372882	0.7764457921407475	0.23852302030256065	0.625845843519162	1.239682519378137	0.2031153226907269	0.7954415608202221	1.7020785752753789	0.2388588059190227	0.5201061750001932	1.7137210275081873	0.29059132615513206	0.5952204683285605	1.7391066978381478	0.18482979670510535	0.8309124542590283	1.7507068939038577	0.039013312917305865	0.5659844854344426	0.7917977519390239	0.026615751413641912	0.624925805335277	1.2505775670018557	-0.012627385096869732	0.7511771943079422	1.6889377629293405	0.08601922173647115	0.5087558837993136	1.706487731175207	0.00163957737329379	0.5408304191359251	1.7040411106623863	-0.020937149948948006	0.8575623005946413	1.7849547521026528	0.12995617786178393	0.4915603858507203	0.20735518986453433	0.13432492755630754	0.3552684963205447	-0.02601000324118687	0.13876872326339673	0.3180519287510161	0.10970604983251925	0.29071736868023473	0.47190611871980687	0.2791332730381119	0.3016610924129885	0.47012429491973673	0.5455445516050316	0.28278690375270127	0.3897012292349387	0.8103567387393716	0.19405295502280812	0.32227186824761134	0.8978084786944538	0.1801400489686952	0.36807001973534	0.9529992977623086	0.21440392681258139	0.46680016009641767	0.9669735942169726	0.006892691789585659	0.4854996784299992	0.2848296361778818	0.010258607005024267	0.43299294997834875	0.5541636559178083	0.08837972888829793	0.3334310976707001	0.7851111748036075	0.1796487428432574	0.2232575672983012	0.8353738737245038	0.16531183782247724	0.25298513393467176	0.8777454173568698	0.15101330237896407	0.3374272945271938	0.9131319114538164
83	1.4067796610169492	0.25892077604378366	0.5435198330410755	0.7686869555504433	0.23800823414213074	0.6268983628603453	1.2357815924036892	0.20311554051470015	0.7955133262805602	1.7022155292485026	0.23883052415722	0.5201907121218017	1.7138017877245042	0.2905618750755765	0.5957839631248136	1.7393905320870688	0.18483262989113772	0.8308824443344239	1.7507438694916895	0.046002545027245656	0.5524559382075858	0.7849053552969889	0.026647924140068415	0.6249805906688171	1.2505419094087253	-0.012634389396954668	0.7510097956868053	1.6887806349555792	0.08613578896471413	0.5089496470632701	1.7065759909079592	-0.0005644950949366936	0.5271282969622452	1.7020170656283342	-0.021024436372180575	0.857330143035502	1.7847755465132922	0.13364170557743432	0.4929752711483566	0.2104918662836983	0.13432335613837118	0.35522731443589917	-0.025978536732687175	0.13882438012698428	0.31781271161329966	0.11279202442752177	0.28853091375530654	0.4604531029634175	0.2789875367986982	0.3019062725658854	0.47011342631753367	0.5421526378385175	0.28269640057587353	0.3896963058660042	0.8102842006014273	0.18877606001794184	0.31967239720345475	0.8954373121724349	0.18063837365744612	0.36769537363361815	0.950257672505649	0.2147554039891054	0.4667099011679965	0.9670331807350631	0.006882247690313861	0.48555415072214125	0.2848725775509218	0.010703988461312933	0.43314216425810126	0.5505941029491128	0.088382626280551	0.3334031000519544	0.7850970720800287	0.17957607514812834	0.2232753408320462	0.8353906154853336	0.1647821639293878	0.2518164412328273	0.8738157998666491	0.15095008077991912	0.33750018328772663	0.9132858451249536
84	1.423728813559322	0.259256702992185	0.5429906339683445	0.7726823791539411	0.23791765471587809	0.6268668697462195	1.2354591332831022	0.20379361125196635	0.7943584882091457	1.7063988526207028	0.23908636400371935	0.5206194513553696	1.7137640473826692	0.2842081009164916	0.5798215132252555	1.7322287834832448	0.19554777409436014	0.8285096499926297	1.74318014610689	0.03902925197103772	0.5657659619144341	0.7918093471897323	0.02611317071473556	0.6258608948588346	1.2468884426128541	-0.013200389461340684	0.752431304088847	1.6850738603864397	0.07807549164657746	0.5091990706535725	1.7073887785658892	0.0032914271789709704	0.5294552644746274	1.7024589077180972	-0.020932059447669446	0.8577601220865888	1.7849346414353906	0.12998049183866142	0.4915938339788386	0.20722290644001806	0.13431741115756252	0.3564219085627412	-0.022531039141026835	0.1388511653609954	0.3176304101808874	0.11270297869057622	0.29073336576072745	0.4719125302359507	0.2792341023799543	0.30187619801845406	0.4702966824900504	0.542178818909715	0.2826626047032983	0.38989956773456563	0.8103260950646417	0.19432748279520584	0.30747313851897057	0.8920367128895156	0.18593518034248896	0.3567810591080023	0.9466912495667127	0.2135399784579904	0.4660342457293848	0.9611274290986497	0.006776807536105444	0.48537114477576093	0.28806557311349007	0.010378790345688026	0.4331001299592682	0.5541959003424481	0.08804729977231752	0.33371976447177376	0.7814984958115229	0.1792986582968822	0.22355511626544738	0.8324683109749831	0.17035689738798745	0.2396401144109061	0.8705065061293508	0.15079776973488979	0.3357108196574673	0.9098694473131309
